<?xml version="1.0" encoding="utf-8"?>
<!-- Generator: Adobe Illustrator 19.0.0, SVG Export Plug-In . SVG Version: 6.00 Build 0)  -->
<svg version="1.1" id="Header" xmlns="http://www.w3.org/2000/svg" xmlns:xlink="http://www.w3.org/1999/xlink" x="0px" y="0px"
	 viewBox="0 0 127.9 40.3" style="enable-background:new 0 0 127.9 40.3;" xml:space="preserve">
<style type="text/css">
	.st0{fill:#2A2D3C;}
	.st1{fill:#28EA89;}
</style>
<g>
	<path class="st0" d="M69.7,20c0,1.4-0.5,2.6-1.5,3.6c-1,1-2.2,1.5-3.6,1.5c-1.4,0-2.6-0.5-3.6-1.5c-1-1-1.5-2.2-1.5-3.6
		c0-1.4,0.5-2.6,1.5-3.6c1-1,2.2-1.5,3.6-1.5c1.4,0,2.6,0.5,3.6,1.5c0.5,0.5,0.9,1,1.1,1.6C69.6,18.6,69.7,19.2,69.7,20z M64.7,16.2
		c-0.5,0-1,0.1-1.4,0.3c-0.4,0.2-0.8,0.5-1.2,0.8c-0.4,0.4-0.6,0.8-0.8,1.2c-0.2,0.4-0.3,0.9-0.3,1.4c0,1,0.4,1.9,1.1,2.6
		c0.7,0.7,1.6,1.1,2.6,1.1c1,0,1.9-0.4,2.6-1.1c0.7-0.7,1.1-1.6,1.1-2.6c0-1-0.4-1.9-1.1-2.6C66.6,16.6,65.7,16.2,64.7,16.2z"/>
	<path class="st0" d="M85.9,14.9c1.4,0,2.6,0.5,3.6,1.5c0.5,0.5,0.9,1,1.1,1.6c0.2,0.6,0.4,1.2,0.4,2c0,1.4-0.5,2.6-1.5,3.6
		c-1,1-2.2,1.5-3.6,1.5h-2c-0.1,0-0.2,0-0.3-0.1c-0.1,0-0.2-0.1-0.2-0.1c-0.1-0.1-0.1-0.1-0.1-0.2c0-0.1-0.1-0.2-0.1-0.3v-8.8
		c0-0.1,0-0.2,0.1-0.3c0-0.1,0.1-0.2,0.1-0.2c0.1-0.1,0.1-0.1,0.2-0.1c0.1,0,0.2-0.1,0.3-0.1H85.9z M85.9,23.7c1,0,1.9-0.4,2.6-1.1
		c0.4-0.4,0.6-0.8,0.8-1.2c0.2-0.4,0.3-0.9,0.3-1.4c0-1-0.4-1.9-1.1-2.6c-0.7-0.7-1.6-1.1-2.6-1.1h-1.3v7.5H85.9z"/>
	<g>
		<polygon class="st1" points="5.7,10.1 11.5,20.2 0,20.2 		"/>
		<polygon class="st1" points="17.2,10.1 11.5,0 22.9,0 		"/>
		<polygon class="st0" points="28.7,10.1 22.9,0 34.4,0 		"/>
		<polygon class="st0" points="11.4,0 17.2,10.1 5.7,10.1 		"/>
		<polygon class="st1" points="34.4,0 40.1,10.1 28.7,10.1 		"/>
		<polygon class="st0" points="40.1,10.1 34.4,20.2 45.9,20.2 		"/>
		<polygon class="st1" points="28.7,30.2 34.4,40.3 22.9,40.3 		"/>
		<polygon class="st0" points="17.2,30.2 22.9,40.3 11.5,40.3 		"/>
		<polygon class="st0" points="34.4,40.3 28.7,30.2 40.1,30.2 		"/>
		<polygon class="st1" points="11.5,40.3 5.7,30.2 17.2,30.2 		"/>
		<polygon class="st0" points="5.7,30.2 11.5,20.1 0,20.1 		"/>
		<path class="st1" d="M34.4,20.1L34.4,20.1L34.4,20.1L34.4,20.1z M45.9,20.1L45.9,20.1L45.9,20.1L45.9,20.1z M40.1,30.2l5.7-10.1
			H34.4L40.1,30.2z"/>
	</g>
	<path class="st0" d="M106.1,24.4c0,0.2-0.1,0.3-0.2,0.5c-0.1,0.1-0.3,0.2-0.5,0.2c-0.2,0-0.3-0.1-0.5-0.2c-0.1-0.1-0.2-0.3-0.2-0.5
		v-8.8c0-0.2,0.1-0.3,0.2-0.5c0.1-0.1,0.3-0.2,0.5-0.2c0.2,0,0.3,0.1,0.5,0.2c0.1,0.1,0.2,0.3,0.2,0.5V24.4z"/>
	<path class="st0" d="M119.7,24.4v-8.8c0-0.1,0-0.2,0.1-0.3c0-0.1,0.1-0.2,0.1-0.2c0.1-0.1,0.1-0.1,0.2-0.1c0.1,0,0.2-0.1,0.3-0.1
		c0.2,0,0.4,0.1,0.5,0.2l5.7,7.3v-6.9c0-0.2,0.1-0.3,0.2-0.5c0.1-0.1,0.3-0.2,0.5-0.2c0.2,0,0.3,0.1,0.5,0.2
		c0.1,0.1,0.2,0.3,0.2,0.5v8.8c0,0.1,0,0.2-0.1,0.3c0,0.1-0.1,0.2-0.1,0.2c-0.1,0.1-0.1,0.1-0.2,0.1c-0.1,0-0.2,0.1-0.3,0.1
		c-0.2,0-0.4-0.1-0.5-0.2l-5.7-7.3v6.8c0,0.2-0.1,0.3-0.2,0.5c-0.1,0.1-0.3,0.2-0.5,0.2c-0.2,0-0.3-0.1-0.5-0.2
		C119.8,24.7,119.7,24.5,119.7,24.4z"/>
</g>
</svg>
